PathFileType	4	(X/Y/Z)	OpenSim_Sub08_EMGBaseline_Gyro.trc
DataRate	CameraRate	NumFrames	NumMarkers	Units	OrigDataRate	OrigDataStartFrame	OrigNumFrames
100	100	31	8	m	100	1	6654
Frame#	Time	torso_imu_offset_imu	pelvis_imu_offset_imu	tibia_r_imu_offset_imu	femur_r_imu_offset_imu	tibia_l_imu_offset_imu	femur_l_imu_offset_imu	toes_r_imu_offset_imu	toes_l_imu_offset_imu
				X1	Y1	Z1	X2	Y2	Z2	X3	Y3	Z3	X4	Y4	Z4	X5	Y5	Z5	X6	Y6	Z6	X7	Y7	Z7	X8		Y8	Z8	

1	0	-0.01226821	-0.02558915	0.01224367	0.01866795	0.02123235	-0.00625921	0.00108198	0.02284307	-0.01028429	-0.01202140	0.03043307	-0.01029792	-0.00790258	-0.00200660	-0.00382610	0.00034956	-0.02598595	0.00109285	0.00327429	0.00623294	-0.00131524	-0.00820120	0.01294523	0.00244396
2	0.01000000	-0.01017872	-0.02509445	0.00838080	0.01810320	0.02210218	-0.00694455	0.01140548	0.02508758	-0.01118654	-0.00927953	0.03146786	-0.00799011	0.00021888	-0.00511880	-0.00347773	0.00292704	-0.02547716	0.00287013	0.00535539	0.00684946	-0.00167926	-0.00303323	0.01417921	0.00149180
3	0.02000000	-0.01264113	-0.02473925	0.00698236	0.01576205	0.01735927	-0.00580997	0.00822168	0.02504369	-0.01710760	-0.00311949	0.03462876	-0.00721980	0.01209548	-0.01164100	0.00204048	0.01144115	-0.02654704	0.00063510	0.00545734	0.00423852	0.00062457	-0.00402767	0.01008109	-0.00207162
4	0.03000000	-0.01109945	-0.02225125	0.00999111	0.01396426	0.01941764	-0.00551161	0.00303520	0.03056653	-0.01761807	0.00249714	0.03828528	-0.00556966	0.01528162	-0.00718414	0.00247226	0.01037640	-0.02660057	0.00229281	0.00815041	0.00491903	-0.00077680	-0.00255318	0.01120707	0.00081493
5	0.04000000	-0.00755585	-0.02366066	0.00935056	0.01120571	0.01758752	-0.00602248	0.00534976	0.03068630	-0.01726924	0.00521186	0.03693038	-0.00178774	0.01203577	-0.00908730	-0.00030792	0.00665639	-0.02477544	0.00799379	0.00786926	0.00280290	-0.00460379	-0.00133830	0.01346811	0.00195694
6	0.05000000	-0.00412041	-0.02649082	0.01143090	0.01229663	0.01387646	-0.00880619	-0.00460981	0.03330673	-0.01928858	0.01106308	0.03676292	-0.00606116	0.00725627	-0.00900541	-0.00365023	0.00770093	-0.02489169	0.00592328	0.00897007	0.00360616	-0.00397538	-0.00720450	0.00977464	-0.00014366
7	0.06000000	0.00322540	-0.02474731	0.01055101	0.01633900	0.00789837	-0.00699678	-0.01007953	0.03651451	-0.02149415	0.01393005	0.04239876	-0.00572968	0.00484677	-0.01084371	-0.00227576	0.00368760	-0.02472010	0.00700505	0.00960247	0.00140818	-0.00246672	-0.00335744	0.01092081	0.00082342
8	0.07000000	0.00644404	-0.02554000	0.00825118	0.02173953	0.00196463	-0.00568934	-0.00980878	0.04039728	-0.02293138	0.01543399	0.04506345	-0.00424755	0.00944478	-0.01461013	-0.00249300	-0.00034124	-0.02655691	0.00568582	0.01124590	0.00241683	-0.00486532	-0.00181962	0.01146391	0.00014477
9	0.08000000	0.00833443	-0.02546712	0.01137078	0.02430193	0.00245607	-0.00615161	-0.00825988	0.04443155	-0.02165066	0.01817188	0.04872402	-0.00589946	0.01305248	-0.01486186	0.00148267	0.00142133	-0.02934850	0.00290220	0.01384847	0.00101269	-0.00564374	-0.00413982	0.01082683	0.00036778
10	0.09000000	0.01197137	-0.02275832	0.00922218	0.02839589	0.00391109	-0.00563198	-0.00507061	0.04712099	-0.01988019	0.01995294	0.04718157	-0.00846103	0.01649942	-0.01630672	0.00481307	0.00627692	-0.03314200	-0.00052299	0.01407041	-0.00157009	-0.00562306	-0.00120635	0.01087024	0.00116613
11	0.10000000	0.01143409	-0.02237368	0.00946512	0.03248939	0.00580628	-0.00453105	-0.00341435	0.04964498	-0.02041480	0.02137342	0.04479138	-0.01223267	0.01027384	-0.02103822	0.00363221	0.00884124	-0.03408196	-0.00125215	0.01508673	-0.00218417	-0.00702713	-0.00246124	0.01181246	-0.00270424
12	0.11000000	0.00995084	-0.01963370	0.01690738	0.03241901	0.01302654	-0.00471112	-0.00512161	0.05438280	-0.01989351	0.02475127	0.04091838	-0.01519607	0.00303824	-0.01867647	0.00509352	0.00753846	-0.03389104	-0.00029488	0.01479453	0.00112503	-0.00728545	-0.00639535	0.01156172	-0.00130439
13	0.12000000	0.01375126	-0.01683565	0.01777064	0.02479981	0.02585123	-0.00279585	-0.00846170	0.05616507	-0.01673659	0.02297387	0.04252889	-0.01967964	-0.00508684	-0.01814631	0.00643182	0.01027098	-0.03929054	-0.00371480	0.01759180	0.00008909	-0.00708781	-0.00076512	0.01066369	0.00232265
14	0.13000000	0.01488505	-0.02282383	0.01838966	0.01360521	0.04525961	-0.00299449	-0.01908847	0.05329701	-0.01612009	0.01800165	0.04367546	-0.02222514	-0.01752208	-0.02212085	0.00857586	0.01580097	-0.04238401	-0.00634228	0.01537235	-0.00220151	-0.00599028	-0.00427812	0.01210365	-0.00072682
15	0.14000000	0.01872732	-0.01702400	0.01949534	0.01117918	0.06076147	-0.00220461	-0.02787192	0.04261859	-0.01134943	0.01274354	0.04054917	-0.02652759	-0.02377041	-0.02096336	0.00962763	0.01247303	-0.03911048	-0.00756673	0.01028796	0.00334392	-0.00589677	-0.00139463	0.01322377	-0.00028117
16	0.15000000	0.01575577	-0.01582830	0.02275743	0.01075849	0.06948829	-0.00068377	-0.02831244	0.04174960	-0.00503353	0.00796941	0.04460706	-0.03058384	-0.02692263	-0.01981144	0.01103933	0.00366536	-0.04441321	-0.01180503	0.00961617	0.00264829	-0.00601685	-0.00641141	0.01478197	0.00297237
17	0.16000000	0.01445187	-0.01901956	0.02627570	0.01330641	0.07536642	0.00050653	-0.01356945	0.04517580	-0.00720702	0.00511979	0.04986591	-0.03215775	-0.02824027	-0.02616691	0.01104221	-0.00823961	-0.04782757	-0.01686921	0.01455122	0.00501813	-0.00720570	-0.00680515	0.01349913	0.00103585
18	0.17000000	0.01647179	-0.01768422	0.03151810	0.01815313	0.07277698	0.00347987	-0.00597351	0.04474521	-0.01411799	0.00378823	0.05475776	-0.03585617	-0.02590486	-0.03039122	0.01213529	-0.01822253	-0.05328504	-0.01897940	0.01001018	0.00163662	-0.00606851	-0.00124855	0.01599545	0.00150378
19	0.18000000	0.02016346	-0.01494288	0.03439360	0.02923334	0.06651766	0.00462082	0.00612647	0.04696066	-0.01449580	0.00274397	0.05950671	-0.03573137	-0.02841047	-0.02734647	0.01300253	-0.02703304	-0.05962332	-0.02262535	0.00806986	0.00200142	-0.00084345	-0.00511374	0.01550549	0.00191624
20	0.19000000	0.01539616	-0.01532578	0.02679611	0.04508028	0.06904726	0.00516949	0.02005137	0.05335469	-0.01512097	0.00848533	0.06216278	-0.03777186	-0.03714725	-0.02691501	0.01174444	-0.03639377	-0.06108131	-0.02122889	0.01021876	0.00613781	-0.00265504	-0.00226883	0.01261615	0.00083436
21	0.20000000	0.01239459	-0.01411277	0.03187250	0.05730286	0.06991846	0.00858885	0.01738937	0.05428420	-0.01552187	0.01510670	0.06268488	-0.03627339	-0.04476510	-0.03100420	0.01710805	-0.05047601	-0.06968929	-0.01815197	0.00965831	0.00533475	-0.00183875	-0.00836728	0.01356378	0.00498110
22	0.21000000	0.01484123	-0.00825161	0.04273982	0.07132017	0.07146910	0.01031595	0.01569511	0.05158030	-0.01671025	0.02677265	0.06139333	-0.03249262	-0.04508617	-0.02791850	0.01691973	-0.06170191	-0.06717195	-0.01868916	0.01240875	0.00677569	-0.00457759	-0.00930703	0.01349718	0.00340597
23	0.22000000	0.01880655	-0.00717756	0.03879183	0.07714495	0.06423051	0.01293893	0.01315615	0.05484704	-0.01770651	0.04399522	0.06102965	-0.03405032	-0.04273782	-0.02951282	0.01837421	-0.03916209	-0.05139564	-0.03225430	0.00926331	0.00242766	-0.00603347	-0.00845441	0.01148345	0.00355481
24	0.23000000	0.01552313	-0.00513703	0.03734579	0.07811517	0.05404530	0.01189228	0.00374332	0.05498476	-0.01940981	0.06287701	0.06354002	-0.03423040	-0.03459757	-0.03714097	0.01838198	-0.00756758	-0.04846772	-0.04051351	0.00996544	0.00163479	-0.00498059	-0.00665390	0.01330954	0.00258922
25	0.24000000	0.01542896	-0.00307534	0.04142534	0.07286716	0.04550645	0.01529642	-0.00169014	0.05505358	-0.02075385	0.07582952	0.06447751	-0.03451278	-0.02038553	-0.04160719	0.02141323	-0.00160944	-0.04962754	-0.03273965	0.01051938	0.00243700	-0.00433485	0.00064691	0.01409890	-0.00135300
26	0.25000000	0.01871748	-0.00095836	0.04285340	0.06783024	0.03396669	0.01906224	0.00213740	0.05810507	-0.02485866	0.07681351	0.06361702	-0.03325943	-0.02237638	-0.03827125	0.02160173	-0.00040754	-0.04436225	-0.02427001	0.01307609	0.00191652	-0.00448859	-0.00292473	0.01443227	-0.00240289
27	0.26000000	0.02236688	-0.00241901	0.04803491	0.06525586	0.02351767	0.02118336	0.01035112	0.05602460	-0.02811425	0.06918829	0.05941434	-0.02943466	-0.03778600	-0.04020261	0.01057920	0.00483177	-0.04359537	-0.02186791	0.01248454	0.00107823	-0.00425850	0.00380603	0.01645975	-0.00073741
28	0.27000000	0.02161350	-0.00472927	0.04930028	0.06235574	0.01970318	0.02316625	0.01528448	0.05873144	-0.02985122	0.05946048	0.06178387	-0.02845672	-0.03465361	-0.03997417	0.00825651	0.01226993	-0.04911630	-0.02274430	0.01158414	0.00442065	-0.00786663	-0.00272407	0.01606291	-0.00296382
29	0.28000000	0.02365301	0.00011954	0.04820102	0.06020846	0.01611548	0.02181953	0.02007984	0.06662039	-0.03333615	0.04384605	0.05948455	-0.02629072	-0.02198088	-0.03782253	0.01263742	0.01966618	-0.05033537	-0.01700540	0.01021989	0.00312431	-0.00616753	-0.00087581	0.01674181	-0.00344167
30	0.29000000	0.02688136	-0.00001104	0.05245970	0.06082717	0.01383532	0.01659710	0.02055282	0.06836955	-0.03387202	0.03075624	0.05660035	-0.02686544	-0.00992099	-0.03665278	0.00783413	0.01968304	-0.05672480	-0.00701223	0.01122958	-0.00007533	-0.00505349	-0.00212642	0.01543096	0.00183251
31	0.30000000	0.02825313	0.00142597	0.05260566	0.05896551	0.01216326	0.01710757	0.01037964	0.06930961	-0.03306447	0.01882346	0.05914997	-0.02345945	0.00122088	-0.03551622	0.00649327	0.01167308	-0.05938264	-0.00153420	0.01382507	-0.00005436	-0.00689060	-0.00021940	0.01437889	-0.00001702
